<svg width="58" height="58" viewBox="0 0 58 58" fill="none" xmlns="http://www.w3.org/2000/svg">
<path fill-rule="evenodd" clip-rule="evenodd" d="M29 56C43.9117 56 56 43.9117 56 29C56 14.0883 43.9117 2 29 2C14.0883 2 2 14.0883 2 29C2 43.9117 14.0883 56 29 56ZM29 58C45.0163 58 58 45.0163 58 29C58 12.9837 45.0163 3.93545e-06 29 2.53526e-06C12.9837 1.13507e-06 -1.13507e-06 12.9837 -2.53526e-06 29C-3.93545e-06 45.0163 12.9837 58 29 58Z" fill="#003687"/>
<path d="M37 31L28.5147 22.5147L20.0294 31" stroke="#003687" stroke-width="2" stroke-linecap="round"/>
</svg>
